<?xml version="1.0" encoding="UTF-8"?>
<svg id="Laag_2" data-name="Laag 2" xmlns="http://www.w3.org/2000/svg" viewBox="0 0 251.97 37.14">
  <defs>
    <style>
      .cls-1 {
        fill: #e52521;
      }
    </style>
  </defs>
  <g id="Laag_1-2" data-name="Laag 1">
    <g>
      <path class="cls-1" d="m23.71,28.79c-.24,1.42-.78,2.76-1.63,3.99-.85,1.24-2.07,2.27-3.66,3.1-1.59.83-3.75,1.25-6.46,1.25-1.53,0-3-.21-4.43-.64-1.42-.42-2.7-1.08-3.82-1.98-1.12-.9-2.02-2.05-2.7-3.46-.68-1.41-1.02-3.11-1.02-5.11v-3.15h7.22v1.63c0,.88.07,1.7.2,2.44.14.75.37,1.38.71,1.91.34.53.81.94,1.4,1.25.59.31,1.36.46,2.31.46,1.05,0,1.86-.19,2.44-.56.58-.37.99-.86,1.25-1.45.25-.59.41-1.24.46-1.93.05-.69.08-1.36.08-2.01V0h7.99v24.88c0,1.19-.12,2.49-.36,3.92Z"/>
      <path class="cls-1" d="m57.79,33.55c-2.75,2.39-6.55,3.59-11.4,3.59s-8.72-1.19-11.42-3.56c-2.7-2.37-4.04-6.04-4.04-10.99V0h7.99v22.59c0,.98.08,1.95.25,2.9.17.95.53,1.79,1.07,2.52.54.73,1.3,1.32,2.26,1.78s2.26.69,3.89.69c2.85,0,4.82-.64,5.9-1.91,1.08-1.27,1.63-3.26,1.63-5.98V0h7.99v22.59c0,4.92-1.37,8.57-4.12,10.96Z"/>
      <path class="cls-1" d="m76.72,0l15.16,24.37h.1V0h7.48v36.32h-7.99l-15.11-24.32h-.1v24.32h-7.48V0h7.94Z"/>
      <path class="cls-1" d="m133.64,0v6.72h-19.18v7.78h17.6v6.21h-17.6v8.9h19.59v6.72h-27.57V0h27.17Z"/>
      <path class="cls-1" d="m152.67,8.72c.54-1.75,1.36-3.27,2.44-4.58,1.08-1.31,2.45-2.32,4.1-3.05,1.64-.73,3.54-1.09,5.67-1.09,1.63,0,3.18.25,4.65.76,1.48.51,2.77,1.24,3.89,2.19,1.12.95,2.01,2.12,2.67,3.51.66,1.39.99,2.95.99,4.68s-.29,3.34-.86,4.63c-.58,1.29-1.34,2.43-2.29,3.43-.95,1-2.03,1.91-3.23,2.72-1.2.81-2.42,1.62-3.64,2.42-1.22.8-2.41,1.65-3.56,2.57-1.15.92-2.17,1.98-3.05,3.21h16.84v6.21h-26.15c0-2.07.3-3.87.89-5.39.59-1.53,1.4-2.89,2.42-4.1,1.02-1.2,2.21-2.31,3.59-3.33s2.82-2.05,4.35-3.1c.78-.54,1.61-1.09,2.49-1.65.88-.56,1.69-1.18,2.42-1.86.73-.68,1.34-1.44,1.83-2.29.49-.85.74-1.81.74-2.9,0-1.73-.5-3.08-1.5-4.04-1-.97-2.28-1.45-3.84-1.45-1.05,0-1.94.25-2.67.74-.73.49-1.31,1.14-1.75,1.93-.44.8-.76,1.68-.94,2.65-.19.97-.28,1.92-.28,2.87h-6.92c-.07-2.03.17-3.92.71-5.67Z"/>
      <path class="cls-1" d="m196.47,6.77c-.85-.88-1.9-1.32-3.15-1.32s-2.37.38-3.23,1.14c-.86.76-1.55,1.7-2.06,2.8-.51,1.1-.88,2.28-1.12,3.54-.24,1.25-.37,2.37-.41,3.36l.1.1c.98-1.42,2.14-2.44,3.46-3.05,1.32-.61,2.85-.92,4.58-.92,1.53,0,3.02.33,4.48.99,1.46.66,2.7,1.55,3.71,2.67.95,1.09,1.64,2.32,2.09,3.71.44,1.39.66,2.8.66,4.22,0,1.83-.3,3.54-.89,5.11-.59,1.58-1.44,2.95-2.54,4.12-1.1,1.17-2.42,2.09-3.94,2.75-1.53.66-3.22.99-5.09.99-2.68,0-4.9-.53-6.66-1.6-1.76-1.07-3.17-2.47-4.22-4.2-1.05-1.73-1.78-3.69-2.19-5.88-.41-2.19-.61-4.42-.61-6.69s.25-4.41.76-6.61c.51-2.2,1.32-4.2,2.44-5.98,1.12-1.78,2.56-3.23,4.32-4.35,1.76-1.12,3.92-1.68,6.46-1.68,1.53,0,2.95.22,4.27.66,1.32.44,2.49,1.08,3.51,1.91s1.85,1.86,2.49,3.08c.64,1.22,1.07,2.63,1.27,4.22h-6.87c-.24-1.19-.78-2.22-1.63-3.1Zm-6.08,11.62c-.73.36-1.33.84-1.81,1.45-.48.61-.83,1.31-1.07,2.11-.24.8-.36,1.64-.36,2.52,0,.81.13,1.62.38,2.42.25.8.63,1.51,1.12,2.14.49.63,1.09,1.13,1.81,1.5.71.37,1.53.56,2.44.56s1.65-.19,2.31-.56c.66-.37,1.23-.87,1.7-1.48.47-.61.83-1.31,1.07-2.09.24-.78.36-1.58.36-2.39s-.11-1.67-.33-2.47c-.22-.8-.55-1.51-.99-2.14-.44-.63-1.01-1.14-1.7-1.53-.7-.39-1.5-.58-2.42-.58s-1.79.18-2.52.53Z"/>
      <path class="cls-1" d="m223.84,10.02v4.83h-5.29v13.02c0,1.22.2,2.03.61,2.44.41.41,1.22.61,2.44.61.41,0,.8-.02,1.17-.05.37-.03.73-.08,1.07-.15v5.6c-.61.1-1.29.17-2.03.2-.75.03-1.48.05-2.19.05-1.12,0-2.18-.08-3.18-.23-1-.15-1.88-.45-2.65-.89-.76-.44-1.37-1.07-1.81-1.88-.44-.81-.66-1.88-.66-3.21v-15.52h-4.38v-4.83h4.38V2.14h7.22v7.89h5.29Z"/>
      <path class="cls-1" d="m234.52,0v13.69h.15c.92-1.53,2.09-2.64,3.51-3.33,1.42-.69,2.81-1.04,4.17-1.04,1.93,0,3.52.26,4.76.79,1.24.53,2.21,1.26,2.93,2.19.71.93,1.21,2.07,1.5,3.41.29,1.34.43,2.82.43,4.45v16.18h-7.22v-14.85c0-2.17-.34-3.79-1.02-4.86-.68-1.07-1.88-1.6-3.61-1.6-1.97,0-3.39.59-4.27,1.76-.88,1.17-1.32,3.1-1.32,5.77v13.79h-7.22V0h7.22Z"/>
    </g>
  </g>
</svg>