<?xml version="1.0" encoding="UTF-8"?>
<svg id="Laag_2" data-name="Laag 2" xmlns="http://www.w3.org/2000/svg" viewBox="0 0 530.99 95.93">
  <defs>
    <style>
      .cls-1 {
        fill: #e52521;
      }
    </style>
  </defs>
  <g id="Laag_1-2" data-name="Laag 1">
    <g>
      <polygon class="cls-1" points="20.16 54.45 64.59 54.45 64.59 38.78 20.16 38.78 20.16 19.13 68.57 19.13 68.57 2.18 0 2.18 0 93.87 69.6 93.87 69.6 76.92 20.16 76.92 20.16 54.45"/>
      <path class="cls-1" d="m137.85,73.45c-3.47,3.77-8.28,5.65-14.45,5.65-4.54,0-8.39-.88-11.56-2.63-3.17-1.75-5.74-4.09-7.7-7-1.97-2.91-3.4-6.18-4.3-9.82-.9-3.64-1.35-7.38-1.35-11.24s.45-7.92,1.35-11.69c.9-3.77,2.33-7.13,4.3-10.08,1.97-2.95,4.54-5.31,7.7-7.06,3.17-1.75,7.02-2.63,11.56-2.63,2.48,0,4.86.41,7.13,1.22,2.27.81,4.3,1.95,6.1,3.4,1.8,1.46,3.29,3.15,4.5,5.07,1.2,1.93,1.97,4.05,2.31,6.36h19.52c-.6-5.31-2.05-10.02-4.37-14.12-2.31-4.11-5.24-7.56-8.8-10.34-3.55-2.78-7.58-4.9-12.07-6.36-4.5-1.45-9.27-2.18-14.32-2.18-7.02,0-13.33,1.24-18.94,3.72-5.61,2.48-10.34,5.91-14.19,10.27-3.85,4.37-6.81,9.48-8.86,15.35-2.05,5.86-3.08,12.22-3.08,19.07s1.03,12.91,3.08,18.68,5.01,10.81,8.86,15.09c3.85,4.28,8.58,7.64,14.19,10.08,5.61,2.44,11.92,3.66,18.94,3.66,5.65,0,10.83-.86,15.54-2.57,4.71-1.71,8.82-4.19,12.33-7.45,3.51-3.25,6.33-7.19,8.47-11.81,2.14-4.62,3.47-9.8,3.98-15.54h-19.52c-.77,6.16-2.89,11.13-6.36,14.9Z"/>
      <polygon class="cls-1" points="198.53 2.18 178.37 2.18 178.37 93.87 243.22 93.87 243.22 76.92 198.53 76.92 198.53 2.18"/>
      <rect class="cls-1" x="254.52" y="2.18" width="20.16" height="91.69"/>
      <path class="cls-1" d="m353.84,11.3c-2.53-2.74-5.8-4.94-9.82-6.61-4.03-1.67-8.91-2.5-14.64-2.5h-41.35v91.69h20.16v-32.87h21.19c5.74,0,10.61-.83,14.64-2.5,4.02-1.67,7.3-3.87,9.82-6.61,2.52-2.74,4.37-5.89,5.52-9.44,1.16-3.55,1.73-7.17,1.73-10.85s-.58-7.4-1.73-10.92c-1.16-3.51-3-6.63-5.52-9.37Zm-13.74,27.35c-.98,1.8-2.29,3.19-3.92,4.17-1.63.98-3.51,1.65-5.65,1.99-2.14.34-4.37.51-6.68.51h-15.67v-27.48h15.67c2.31,0,4.54.17,6.68.51,2.14.34,4.02,1.01,5.65,1.99,1.63.98,2.93,2.38,3.92,4.17.98,1.8,1.48,4.15,1.48,7.06s-.49,5.27-1.48,7.06Z"/>
      <path class="cls-1" d="m437.51,46.1c-3-1.97-6.02-3.4-9.05-4.3-3.04-.9-5.42-1.52-7.13-1.86-5.74-1.45-10.38-2.65-13.93-3.6-3.55-.94-6.34-1.88-8.35-2.82-2.01-.94-3.36-1.97-4.05-3.08-.69-1.11-1.03-2.57-1.03-4.37,0-1.97.43-3.6,1.28-4.88.86-1.28,1.95-2.35,3.27-3.21,1.33-.85,2.8-1.45,4.43-1.8,1.62-.34,3.25-.51,4.88-.51,2.48,0,4.77.21,6.87.64,2.1.43,3.96,1.16,5.59,2.18,1.63,1.03,2.93,2.44,3.92,4.24.98,1.8,1.56,4.07,1.73,6.81h19.52c0-5.31-1.01-9.82-3.02-13.55-2.01-3.72-4.73-6.78-8.15-9.18-3.43-2.4-7.34-4.13-11.75-5.2-4.41-1.07-9.01-1.6-13.8-1.6-4.11,0-8.22.56-12.33,1.67-4.11,1.11-7.79,2.83-11.04,5.14-3.26,2.31-5.89,5.2-7.9,8.67-2.01,3.47-3.02,7.56-3.02,12.26,0,4.2.79,7.77,2.38,10.72,1.58,2.95,3.66,5.42,6.23,7.38,2.57,1.97,5.48,3.58,8.73,4.82,3.25,1.24,6.59,2.29,10.02,3.15,3.34.94,6.63,1.8,9.89,2.57,3.25.77,6.16,1.67,8.73,2.7,2.57,1.03,4.64,2.31,6.23,3.85,1.58,1.54,2.38,3.55,2.38,6.04,0,2.31-.6,4.22-1.8,5.71-1.2,1.5-2.7,2.68-4.5,3.53-1.8.86-3.72,1.43-5.78,1.73-2.05.3-3.98.45-5.78.45-2.65,0-5.22-.32-7.71-.96-2.48-.64-4.64-1.63-6.48-2.95-1.84-1.33-3.32-3.06-4.43-5.2-1.11-2.14-1.67-4.75-1.67-7.83h-19.52c-.09,5.65.94,10.53,3.08,14.64,2.14,4.11,5.03,7.49,8.67,10.15,3.64,2.65,7.83,4.6,12.58,5.84s9.65,1.86,14.7,1.86c6.25,0,11.75-.73,16.5-2.18,4.75-1.45,8.73-3.49,11.94-6.1,3.21-2.61,5.63-5.71,7.26-9.31,1.62-3.6,2.44-7.49,2.44-11.69,0-5.14-1.09-9.35-3.27-12.65-2.18-3.29-4.77-5.93-7.77-7.9Z"/>
      <polygon class="cls-1" points="481.55 76.92 481.55 54.45 525.98 54.45 525.98 38.78 481.55 38.78 481.55 19.13 529.97 19.13 529.97 2.18 461.39 2.18 461.39 93.87 530.99 93.87 530.99 76.92 481.55 76.92"/>
    </g>
  </g>
</svg>