<?xml version="1.0" encoding="UTF-8"?>
<svg id="Laag_2" data-name="Laag 2" xmlns="http://www.w3.org/2000/svg" viewBox="0 0 397.21 291.67">
  <defs>
    <style>
      .cls-1 {
        fill: #e52521;
      }
    </style>
  </defs>
  <g id="Laag_1-2" data-name="Laag 1">
    <path class="cls-1" d="m381.92,291.58c-4.27-2.43-5.91-47.15-8.64-147.84-.94-34.42-1.91-69.87-3.09-95.9-1.79-39.04-3.38-40.18-3.55-40.19s-1.76,1.09-3.55,39.51c-1.19,25.31-2.16,59.68-3.09,92.79-2.72,95.43-4.36,136.66-8.64,134.22s-5.91-44.51-8.64-139.16c-.94-32.34-1.91-65.65-3.09-90.1-1.79-36.65-3.38-37.73-3.55-37.73s-1.76,1.02-3.55,37.06c-1.19,23.73-2.16,55.95-3.09,86.98-2.72,89.39-4.36,127.98-8.63,125.54s-5.91-41.86-8.63-130.48c-.94-30.26-1.91-61.42-3.09-84.29-1.79-34.27-3.38-35.28-3.55-35.28s-1.76.95-3.55,34.6c-1.19,22.15-2.16,52.22-3.09,81.17-2.72,83.36-4.36,119.3-8.63,116.87s-5.91-39.22-8.63-121.8c-.94-28.18-1.91-57.2-3.09-78.49-1.79-31.89-3.38-32.83-3.55-32.83s-1.76.88-3.55,32.15c-1.19,20.57-2.16,48.5-3.09,75.37-2.72,77.33-4.36,110.62-8.63,108.19s-5.91-36.57-8.63-113.12c-.94-26.11-1.91-52.97-3.09-72.68-1.79-29.5-3.38-30.37-3.55-30.38s-1.76.81-3.55,29.7c-1.19,18.99-2.16,44.77-3.09,69.56-2.72,71.29-4.36,101.94-8.63,99.51s-5.91-33.93-8.63-104.44c-.94-24.03-1.91-48.74-3.09-66.88-1.79-27.12-3.38-27.92-3.55-27.93s-1.76.74-3.55,27.25c-1.19,17.41-2.16,41.04-3.09,63.76-2.72,65.26-4.36,93.27-8.63,90.83s-5.91-31.29-8.63-95.76c-.94-21.95-1.91-44.52-3.09-61.07-1.79-24.74-3.38-25.47-3.55-25.47s-1.76.67-3.55,24.79c-1.19,15.83-2.16,37.31-3.09,57.95-2.72,59.23-4.36,84.59-8.63,82.16s-5.91-28.64-8.63-87.09c-.94-19.87-1.91-40.29-3.09-55.26-1.79-22.35-3.38-23.02-3.55-23.02s-1.76.61-3.55,22.34c-1.19,14.25-2.16,33.58-3.09,52.15-2.72,53.19-4.36,75.91-8.63,73.48s-5.91-26-8.63-78.41c-.94-17.8-1.91-36.07-3.09-49.46-1.79-19.97-3.38-20.57-3.55-20.57s-1.76.54-3.55,19.89c-1.19,12.68-2.16,29.86-3.09,46.34-2.72,47.16-4.36,67.23-8.63,64.8s-5.91-23.35-8.63-69.73c-.94-15.72-1.91-31.84-3.09-43.65-1.79-17.59-3.38-18.12-3.55-18.12s-1.76.47-3.55,17.44c-1.19,11.1-2.16,26.13-3.09,40.54-2.72,41.13-4.36,58.56-8.63,56.12s-5.91-20.71-8.63-61.05c-.94-13.64-1.91-27.62-3.09-37.85-1.79-15.21-3.38-15.66-3.55-15.67s-1.76.4-3.55,14.99c-1.19,9.52-2.16,22.4-3.09,34.73-2.72,35.09-4.36,49.88-8.63,47.44s-5.91-18.06-8.63-52.38c-.94-11.57-1.91-23.39-3.09-32.04-1.79-12.82-3.38-13.21-3.55-13.22s-1.76.33-3.55,12.54c-1.19,7.94-2.16,18.67-3.09,28.93-2.72,29.06-4.36,41.2-8.63,38.77s-5.91-15.42-8.63-43.7c-.94-9.49-1.91-19.17-3.09-26.24C1.76,2.32.17,2,0,2V0c4.27,0,5.91,11.75,8.63,39.35.94,9.75,1.91,19.96,3.09,27.79,1.79,12.03,3.38,13.24,3.55,13.33s1.76.64,3.55-9.97c1.19-7.19,2.16-17.39,3.09-27.38C24.64,13.37,26.28,0,30.55,0s5.91,14.4,8.63,48.02c.94,11.83,1.91,24.19,3.09,33.59,1.79,14.42,3.37,15.69,3.55,15.78s1.76.58,3.55-12.42c1.19-8.77,2.16-21.11,3.09-33.18C55.19,16.02,56.83,0,61.1,0s5.91,17.04,8.63,56.7c.94,13.9,1.91,28.41,3.09,39.4,1.79,16.8,3.38,18.14,3.55,18.24s1.76.51,3.55-14.87c1.19-10.35,2.16-24.84,3.09-38.99C85.74,18.66,87.38,0,91.65,0s5.91,19.69,8.63,65.38c.94,15.98,1.91,32.64,3.09,45.2,1.79,19.18,3.38,20.59,3.55,20.69s1.76.44,3.55-17.32c1.19-11.93,2.16-28.57,3.09-44.79C116.29,21.31,117.93,0,122.2,0s5.91,22.33,8.63,74.06c.94,18.06,1.91,36.87,3.09,51.01,1.79,21.57,3.38,23.04,3.55,23.14s1.76.37,3.55-19.77c1.19-13.51,2.16-32.3,3.09-50.6,2.72-53.88,4.36-77.83,8.63-77.83s5.91,24.97,8.63,82.73c.94,20.14,1.91,41.09,3.09,56.81,1.79,23.95,3.38,25.49,3.55,25.59s1.76.3,3.55-22.23c1.19-15.09,2.16-36.03,3.09-56.41,2.72-59.91,4.36-86.51,8.63-86.51s5.91,27.62,8.63,91.41c.94,22.21,1.91,45.32,3.09,62.62,1.79,26.33,3.38,27.95,3.55,28.04s1.76.23,3.55-24.68c1.19-16.66,2.16-39.75,3.09-62.21C207.95,29.24,209.59,0,213.86,0s5.91,30.26,8.63,100.09c.94,24.29,1.91,49.54,3.09,68.42,1.79,28.71,3.38,30.4,3.55,30.49s1.76.16,3.55-27.13c1.19-18.24,2.16-43.48,3.09-68.01C238.5,31.88,240.14,0,244.41,0s5.91,32.91,8.63,108.77c.94,26.37,1.91,53.77,3.09,74.23,1.79,31.1,3.38,32.85,3.55,32.95s1.76.09,3.55-29.58c1.19-19.82,2.16-47.21,3.09-73.82,2.72-78.01,4.36-112.54,8.63-112.54s5.91,35.55,8.63,117.45c.94,28.45,1.91,57.99,3.09,80.03,1.79,33.48,3.38,35.3,3.55,35.4s1.76.03,3.55-32.03c1.19-21.4,2.16-50.94,3.09-79.63,2.72-84.05,4.36-121.22,8.63-121.22s5.91,38.2,8.63,126.12c.94,30.52,1.91,62.22,3.09,85.84,1.79,35.87,3.38,37.76,3.55,37.85s1.76-.04,3.55-34.48c1.19-22.98,2.16-54.66,3.09-85.43,2.72-90.08,4.36-129.9,8.63-129.9s5.91,40.84,8.63,134.8c.94,32.6,1.91,66.45,3.09,91.65,1.79,38.25,3.38,40.21,3.55,40.3s1.76-.11,3.55-36.94c1.19-24.56,2.16-58.39,3.09-91.24,2.72-96.12,4.36-138.58,8.64-138.58s5.91,43.48,8.64,143.48c.94,34.68,1.91,70.67,3.09,97.45,1.79,40.63,3.38,42.66,3.55,42.76s1.76-.18,3.55-39.39c1.19-26.14,2.16-62.12,3.09-97.04,2.72-102.15,4.36-147.26,8.64-147.26v8.12c-.17,0-1.76,1.16-3.55,41.96-1.19,26.89-2.16,63.41-3.09,98.6-2.72,101.46-4.36,145.34-8.64,142.9Z"/>
  </g>
</svg>