<?xml version="1.0" encoding="UTF-8"?>
<svg id="Laag_2" data-name="Laag 2" xmlns="http://www.w3.org/2000/svg" viewBox="0 0 437.14 69.63">
  <defs>
    <style>
      .cls-1 {
        fill: #e52521;
      }
    </style>
  </defs>
  <g id="Laag_1-2" data-name="Laag 1">
    <g>
      <path class="cls-1" d="m88.68,37.14h30.31v-10.69h-30.31v-13.4h33.02V1.49h-46.78v22.11c5.15,6.31,8.25,14.37,8.25,23.16,0,6.25-1.57,12.13-4.32,17.27h43.55v-11.56h-33.72v-15.33Z"/>
      <path class="cls-1" d="m9.87,46.76c0-20.24,16.41-36.65,36.65-36.65,6.86,0,13.28,1.89,18.77,5.17C58.57,6.88,48.25,1.49,36.65,1.49,16.41,1.49,0,17.9,0,38.14c0,13.38,7.18,25.09,17.89,31.48-5.01-6.27-8.02-14.22-8.02-22.87Z"/>
      <g>
        <path class="cls-1" d="m168.96,50.1c-2.36,2.57-5.65,3.85-9.85,3.85-3.1,0-5.72-.6-7.88-1.79-2.16-1.2-3.91-2.79-5.26-4.77-1.34-1.98-2.32-4.22-2.93-6.7-.61-2.48-.92-5.04-.92-7.66s.31-5.4.92-7.97c.61-2.57,1.59-4.86,2.93-6.88,1.34-2.01,3.09-3.62,5.26-4.82,2.16-1.2,4.79-1.8,7.88-1.8,1.69,0,3.31.28,4.86.83,1.55.56,2.94,1.33,4.16,2.32,1.23.99,2.25,2.15,3.07,3.46.82,1.31,1.34,2.76,1.58,4.34h13.31c-.41-3.62-1.4-6.83-2.98-9.64-1.58-2.8-3.58-5.15-6-7.05-2.42-1.9-5.17-3.34-8.23-4.34-3.07-.99-6.32-1.49-9.77-1.49-4.79,0-9.1.85-12.92,2.54-3.83,1.7-7.05,4.03-9.68,7.01-2.63,2.98-4.64,6.47-6.04,10.47-1.4,4-2.1,8.34-2.1,13.01s.7,8.8,2.1,12.75c1.4,3.94,3.42,7.37,6.04,10.29,2.63,2.92,5.85,5.21,9.68,6.88,3.82,1.66,8.13,2.5,12.92,2.5,3.85,0,7.39-.58,10.6-1.75,3.21-1.17,6.01-2.86,8.41-5.08,2.39-2.22,4.32-4.91,5.78-8.06,1.46-3.15,2.36-6.69,2.72-10.6h-13.31c-.53,4.2-1.97,7.59-4.34,10.16Z"/>
        <polygon class="cls-1" points="210.35 1.49 196.6 1.49 196.6 64.03 240.84 64.03 240.84 52.47 210.35 52.47 210.35 1.49"/>
        <rect class="cls-1" x="248.54" y="1.49" width="13.75" height="62.54"/>
        <path class="cls-1" d="m316.3,7.71c-1.72-1.87-3.96-3.37-6.7-4.51-2.75-1.14-6.07-1.71-9.99-1.71h-28.21v62.54h13.75v-22.42h14.45c3.91,0,7.24-.57,9.99-1.71,2.74-1.14,4.98-2.64,6.7-4.51,1.72-1.87,2.98-4.01,3.77-6.44.79-2.42,1.18-4.89,1.18-7.4s-.39-5.05-1.18-7.45c-.79-2.39-2.04-4.52-3.77-6.39Zm-9.37,18.66c-.67,1.23-1.56,2.18-2.67,2.85-1.11.67-2.4,1.12-3.85,1.36-1.46.23-2.98.35-4.56.35h-10.69V12.18h10.69c1.58,0,3.09.12,4.56.35,1.46.23,2.74.69,3.85,1.36,1.11.67,2,1.62,2.67,2.85.67,1.23,1.01,2.83,1.01,4.82s-.34,3.59-1.01,4.82Z"/>
        <path class="cls-1" d="m373.37,31.45c-2.04-1.34-4.1-2.32-6.18-2.93-2.07-.61-3.69-1.04-4.86-1.27-3.91-.99-7.08-1.81-9.5-2.45-2.42-.64-4.32-1.28-5.69-1.93-1.37-.64-2.29-1.34-2.76-2.1-.47-.76-.7-1.75-.7-2.98,0-1.34.29-2.45.88-3.33.58-.88,1.33-1.61,2.23-2.19.9-.58,1.91-.99,3.02-1.23,1.11-.23,2.22-.35,3.33-.35,1.69,0,3.25.15,4.69.44,1.43.29,2.7.79,3.81,1.49,1.11.7,2,1.66,2.67,2.89.67,1.23,1.06,2.77,1.18,4.64h13.31c0-3.62-.69-6.7-2.06-9.24-1.37-2.54-3.23-4.63-5.56-6.26-2.34-1.63-5.01-2.82-8.01-3.55-3.01-.73-6.15-1.09-9.42-1.09-2.8,0-5.61.38-8.41,1.14-2.8.76-5.31,1.93-7.53,3.5-2.22,1.58-4.02,3.55-5.39,5.91-1.37,2.36-2.06,5.15-2.06,8.37,0,2.86.54,5.3,1.62,7.31,1.08,2.01,2.5,3.69,4.25,5.04,1.75,1.34,3.74,2.44,5.96,3.28,2.22.85,4.5,1.56,6.83,2.15,2.28.64,4.52,1.23,6.74,1.75,2.22.53,4.2,1.14,5.96,1.84,1.75.7,3.17,1.58,4.25,2.63,1.08,1.05,1.62,2.42,1.62,4.12,0,1.58-.41,2.88-1.23,3.9-.82,1.02-1.84,1.83-3.07,2.41-1.23.58-2.54.98-3.94,1.18-1.4.21-2.72.31-3.94.31-1.81,0-3.56-.22-5.26-.66-1.69-.44-3.17-1.11-4.42-2.01-1.26-.9-2.26-2.09-3.02-3.55-.76-1.46-1.14-3.24-1.14-5.34h-13.32c-.06,3.85.64,7.18,2.1,9.99,1.46,2.8,3.43,5.11,5.91,6.92,2.48,1.81,5.34,3.14,8.58,3.98,3.24.85,6.58,1.27,10.03,1.27,4.26,0,8.02-.5,11.26-1.49,3.24-.99,5.96-2.38,8.15-4.16,2.19-1.78,3.84-3.9,4.95-6.35,1.11-2.45,1.66-5.11,1.66-7.97,0-3.5-.74-6.38-2.23-8.63-1.49-2.25-3.26-4.04-5.3-5.39Z"/>
        <polygon class="cls-1" points="403.41 52.47 403.41 37.14 433.72 37.14 433.72 26.45 403.41 26.45 403.41 13.05 436.44 13.05 436.44 1.49 389.66 1.49 389.66 64.03 437.14 64.03 437.14 52.47 403.41 52.47"/>
      </g>
    </g>
  </g>
</svg>